HIERARCHY
ROOT hip
{
  OFFSET 5.70873 43.8894 -1.52928
  CHANNELS 6 Xposition Yposition Zposition Zrotation Xrotation Yrotation
  JOINT abdomen
  {
    OFFSET 0 5.99393 0.287273
    CHANNELS 6 Xposition Yposition Zposition Zrotation Xrotation Yrotation
    JOINT chest
    {
      OFFSET 0 6.65865 -0.856112
      CHANNELS 6 Xposition Yposition Zposition Zrotation Xrotation Yrotation
      JOINT neck
      {
        OFFSET 0 8.65624 -1.42685
        CHANNELS 6 Xposition Yposition Zposition Zrotation Xrotation Yrotation
        JOINT head
        {
          OFFSET 0 3.80999 -0.190247
          CHANNELS 6 Xposition Yposition Zposition Zrotation Xrotation Yrotation
          End Site
          {
            OFFSET 0 0 0
          }
        }
      }
      JOINT rCollar
      {
        OFFSET -1.4963 7.5744 -1.52136
        CHANNELS 6 Xposition Yposition Zposition Zrotation Xrotation Yrotation
        JOINT rShldr
        {
          OFFSET -5.47506 -0.905672 0.485692
          CHANNELS 6 Xposition Yposition Zposition Zrotation Xrotation Yrotation
          JOINT rForeArm
          {
            OFFSET -11.3069 -0.201091 0.618544
            CHANNELS 6 Xposition Yposition Zposition Zrotation Xrotation Yrotation
            JOINT rHand
            {
              OFFSET -9.61414 -0.254739 3.48553
              CHANNELS 6 Xposition Yposition Zposition Zrotation Xrotation Yrotation
              JOINT rThumb1
              {
                OFFSET 0.176263 -0.07068 1.26622
                CHANNELS 6 Xposition Yposition Zposition Zrotation Xrotation Yrotation
                JOINT rThumb2
                {
                  OFFSET -1.04683 -0.546484 1.82182
                  CHANNELS 6 Xposition Yposition Zposition Zrotation Xrotation Yrotation
                  JOINT rThumb3
                  {
                    OFFSET -0.993472 -0.621916 0.655506
                    CHANNELS 6 Xposition Yposition Zposition Zrotation Xrotation Yrotation
                    End Site
                    {
                      OFFSET -0.996134 -0.66263 0.644615
                    }
                  }
                }
              }
              JOINT rIndex1
              {
                OFFSET -2.64253 0.566363 2.4162
                CHANNELS 6 Xposition Yposition Zposition Zrotation Xrotation Yrotation
                JOINT rIndex2
                {
                  OFFSET -1.39394 -0.635138 0.899356
                  CHANNELS 6 Xposition Yposition Zposition Zrotation Xrotation Yrotation
                  JOINT rIndex3
                  {
                    OFFSET -0.622395 -0.856016 0.402182
                    CHANNELS 6 Xposition Yposition Zposition Zrotation Xrotation Yrotation
                    End Site
                    {
                      OFFSET -0.472476 -0.801802 0.34216
                    }
                  }
                }
              }
              JOINT rMid1
              {
                OFFSET -3.20814 0.514427 1.52547
                CHANNELS 6 Xposition Yposition Zposition Zrotation Xrotation Yrotation
                JOINT rMid2
                {
                  OFFSET -1.56545 -0.497974 0.68919
                  CHANNELS 6 Xposition Yposition Zposition Zrotation Xrotation Yrotation
                  JOINT rMid3
                  {
                    OFFSET -0.679943 -1.17582 0.444246
                    CHANNELS 6 Xposition Yposition Zposition Zrotation Xrotation Yrotation
                    End Site
                    {
                      OFFSET -0.343874 -0.941341 0.267611
                    }
                  }
                }
              }
              JOINT rRing1
              {
                OFFSET -3.47877 0.200518 0.597719
                CHANNELS 6 Xposition Yposition Zposition Zrotation Xrotation Yrotation
                JOINT rRing2
                {
                  OFFSET -1.28208 -0.53155 0.44672
                  CHANNELS 6 Xposition Yposition Zposition Zrotation Xrotation Yrotation
                  JOINT rRing3
                  {
                    OFFSET -0.710288 -0.970167 0.4032
                    CHANNELS 6 Xposition Yposition Zposition Zrotation Xrotation Yrotation
                    End Site
                    {
                      OFFSET -0.403228 -0.950952 0.378354
                    }
                  }
                }
              }
              JOINT rPinky1
              {
                OFFSET -3.42483 -0.278904 -0.240415
                CHANNELS 6 Xposition Yposition Zposition Zrotation Xrotation Yrotation
                JOINT rPinky2
                {
                  OFFSET -1.05787 -0.635999 0.156459
                  CHANNELS 6 Xposition Yposition Zposition Zrotation Xrotation Yrotation
                  JOINT rPinky3
                  {
                    OFFSET -0.42815 -0.754232 0.287187
                    CHANNELS 6 Xposition Yposition Zposition Zrotation Xrotation Yrotation
                    End Site
                    {
                      OFFSET -0.235717 -0.725605 0.279416
                    }
                  }
                }
              }
            }
          }
        }
      }
      JOINT lCollar
      {
        OFFSET 1.4963 7.5744 -1.52136
        CHANNELS 6 Xposition Yposition Zposition Zrotation Xrotation Yrotation
        JOINT lShldr
        {
          OFFSET 5.47506 -0.905672 0.485692
          CHANNELS 6 Xposition Yposition Zposition Zrotation Xrotation Yrotation
          JOINT lForeArm
          {
            OFFSET 11.3069 -0.201091 0.618544
            CHANNELS 6 Xposition Yposition Zposition Zrotation Xrotation Yrotation
            JOINT lHand
            {
              OFFSET 9.61414 -0.254739 3.48553
              CHANNELS 6 Xposition Yposition Zposition Zrotation Xrotation Yrotation
              JOINT lThumb1
              {
                OFFSET -0.176263 -0.07068 1.26622
                CHANNELS 6 Xposition Yposition Zposition Zrotation Xrotation Yrotation
                JOINT lThumb2
                {
                  OFFSET 1.04683 -0.546484 1.82182
                  CHANNELS 6 Xposition Yposition Zposition Zrotation Xrotation Yrotation
                  JOINT lThumb3
                  {
                    OFFSET 0.993472 -0.621916 0.655506
                    CHANNELS 6 Xposition Yposition Zposition Zrotation Xrotation Yrotation
                    End Site
                    {
                      OFFSET 0.996134 -0.66263 0.644615
                    }
                  }
                }
              }
              JOINT lIndex1
              {
                OFFSET 2.64253 0.566363 2.4162
                CHANNELS 6 Xposition Yposition Zposition Zrotation Xrotation Yrotation
                JOINT lIndex2
                {
                  OFFSET 1.39394 -0.635138 0.899356
                  CHANNELS 6 Xposition Yposition Zposition Zrotation Xrotation Yrotation
                  JOINT lIndex3
                  {
                    OFFSET 0.622395 -0.856016 0.402182
                    CHANNELS 6 Xposition Yposition Zposition Zrotation Xrotation Yrotation
                    End Site
                    {
                      OFFSET 0.472476 -0.801802 0.34216
                    }
                  }
                }
              }
              JOINT lMid1
              {
                OFFSET 3.20814 0.514427 1.52547
                CHANNELS 6 Xposition Yposition Zposition Zrotation Xrotation Yrotation
                JOINT lMid2
                {
                  OFFSET 1.56545 -0.497974 0.68919
                  CHANNELS 6 Xposition Yposition Zposition Zrotation Xrotation Yrotation
                  JOINT lMid3
                  {
                    OFFSET 0.679943 -1.17582 0.444246
                    CHANNELS 6 Xposition Yposition Zposition Zrotation Xrotation Yrotation
                    End Site
                    {
                      OFFSET 0.343874 -0.941341 0.267611
                    }
                  }
                }
              }
              JOINT lRing1
              {
                OFFSET 3.47877 0.200518 0.597719
                CHANNELS 6 Xposition Yposition Zposition Zrotation Xrotation Yrotation
                JOINT lRing2
                {
                  OFFSET 1.28208 -0.53155 0.44672
                  CHANNELS 6 Xposition Yposition Zposition Zrotation Xrotation Yrotation
                  JOINT lRing3
                  {
                    OFFSET 0.710288 -0.970167 0.4032
                    CHANNELS 6 Xposition Yposition Zposition Zrotation Xrotation Yrotation
                    End Site
                    {
                      OFFSET 0.403228 -0.950952 0.378354
                    }
                  }
                }
              }
              JOINT lPinky1
              {
                OFFSET 3.42483 -0.278904 -0.240415
                CHANNELS 6 Xposition Yposition Zposition Zrotation Xrotation Yrotation
                JOINT lPinky2
                {
                  OFFSET 1.05787 -0.635999 0.156459
                  CHANNELS 6 Xposition Yposition Zposition Zrotation Xrotation Yrotation
                  JOINT lPinky3
                  {
                    OFFSET 0.42815 -0.754232 0.287187
                    CHANNELS 6 Xposition Yposition Zposition Zrotation Xrotation Yrotation
                    End Site
                    {
                      OFFSET 0.235717 -0.725605 0.279416
                    }
                  }
                }
              }
            }
          }
        }
      }
    }
  }
  JOINT rThigh
  {
    OFFSET -4.17848 -1.02486 0.046356
    CHANNELS 6 Xposition Yposition Zposition Zrotation Xrotation Yrotation
    JOINT rShin
    {
      OFFSET 1.27155 -17.465 -0.237699
      CHANNELS 6 Xposition Yposition Zposition Zrotation Xrotation Yrotation
      JOINT rFoot
      {
        OFFSET 0.529163 -17.3815 -1.19582
        CHANNELS 6 Xposition Yposition Zposition Zrotation Xrotation Yrotation
        JOINT rToe
        {
          OFFSET -0.711591 -4.4863 4.0596
          CHANNELS 6 Xposition Yposition Zposition Zrotation Xrotation Yrotation
          End Site
          {
            OFFSET -0.869915 -1.10655 1.99006
          }
        }
      }
    }
  }
  JOINT lThigh
  {
    OFFSET 4.17848 -1.02486 0.046356
    CHANNELS 6 Xposition Yposition Zposition Zrotation Xrotation Yrotation
    JOINT lShin
    {
      OFFSET -1.27155 -17.465 -0.237699
      CHANNELS 6 Xposition Yposition Zposition Zrotation Xrotation Yrotation
      JOINT lFoot
      {
        OFFSET -0.529163 -17.3815 -1.19582
        CHANNELS 6 Xposition Yposition Zposition Zrotation Xrotation Yrotation
        JOINT lToe
        {
          OFFSET 0.711591 -4.4863 4.0596
          CHANNELS 6 Xposition Yposition Zposition Zrotation Xrotation Yrotation
          End Site
          {
            OFFSET 0.869915 -1.10655 1.99006
          }
        }
      }
    }
  }
}
MOTION
Frames:	4
Frame Time:	0.0333333
-0.423356 43.5784 8.21906 -7.28013 13.5983 -6.71087 8.88178e-016 5.99393 0.287273 5.56293 7.41686 -4.15829 0 6.65865 -0.856112 11.7995 14.3688 -9.13757 -8.88178e-016 8.65624 -1.42685 -4.68281 -9.43222 -29.4076 3.55271e-015 3.80999 -0.190247 1.70876 -3.71761 -23.6909 -1.4963 7.5744 -1.52136 -13.5903 -0.00132676 -3.48247 -5.47506 -0.905672 0.485692 88.4275 2.93266 -10.2514 -11.3069 -0.201091 0.618544 -3.79334 22.2944 -0.112358 -9.61414 -0.254739 3.48553 -5.13379 23.1676 12.6666 0.176263 -0.07068 1.26622 -2.1026 7.0656 -16.1231 -1.04683 -0.546484 1.82182 1.4827 -1.44792 4.28418 -0.993472 -0.621916 0.655506 -0.879973 0.970537 -2.68778 -2.64253 0.566363 2.4162 8.42302 7.3418 -7.54049 -1.39394 -0.635138 0.899356 -1.75034 -0.47056 0.250799 -0.622395 -0.856016 0.402182 4.27143 1.11199 -0.669648 -3.20814 0.514427 1.52547 2.3801 3.97234 -0.643827 -1.56545 -0.497974 0.68919 2.72728 0.827444 -0.407412 -0.679943 -1.17582 0.444246 1.94211 0.591383 -0.286176 -3.47877 0.200518 0.597719 1.14364 -0.221559 0.0706938 -1.28208 -0.53155 0.44672 2.40169 0.820618 -0.455449 -0.710288 -0.970167 0.4032 1.61131 0.553111 -0.301612 -3.42483 -0.278904 -0.240415 1.85997 -0.989312 1.02182 -1.05787 -0.635999 0.156459 0.144027 0.0539436 -0.0242791 -0.42815 -0.754232 0.287187 1.84042 0.680512 -0.319936 1.4963 7.5744 -1.52136 19.3919 -0.0687076 -0.613378 5.47506 -0.905672 0.485692 -95.2951 11.6629 10.7468 11.3069 -0.201091 0.618544 -1.18553 12.3761 -6.36116 9.61414 -0.254739 3.48553 -11.9533 11.2462 16.6769 -0.176263 -0.07068 1.26622 4.63201 3.82516 13.4506 1.04683 -0.546484 1.82182 -3.80919 -0.892331 -6.7196 0.993472 -0.621916 0.655506 -0.00888645 -0.00259138 -0.0157586 2.64253 0.566363 2.4162 -1.17405 5.76148 7.27741 1.39394 -0.635138 0.899356 6.5079 -2.34045 -2.49177 0.622395 -0.856016 0.402182 0.975133 -0.330265 -0.387599 3.20814 0.514427 1.52547 3.07559 2.14685 -0.605998 1.56545 -0.497974 0.68919 2.39579 -0.934449 -0.947942 0.679943 -1.17582 0.444246 3.1157 -1.22535 -1.22756 3.47877 0.200518 0.597719 3.59031 -2.20927 -1.97001 1.28208 -0.53155 0.44672 2.57989 -1.11397 -1.15792 0.710288 -0.970167 0.4032 3.29522 -1.43699 -1.47306 3.42483 -0.278904 -0.240415 2.58454 -2.97768 -2.75911 1.05787 -0.635999 0.156459 4.5739 -2.17123 -1.97416 0.42815 -0.754232 0.287187 3.06319 -1.43301 -1.3376 -4.17848 -1.02486 0.046356 12.5807 -17.2734 6.13806 1.27155 -17.465 -0.237699 0.472696 4.33478 0.604054 0.529163 -17.3815 -1.19582 -1.98946 0.217099 -8.95768 -0.711591 -4.4863 4.0596 0.13952 1.00451 -0.0284164 4.17848 -1.02486 0.046356 8.35702 -0.218555 -10.4562 -1.27155 -17.465 -0.237699 0.206488 2.89685 0.404344 -0.529163 -17.3815 -1.19582 5.63533 -15.3684 -3.74796 0.711591 -4.4863 4.0596 0.0684873 -0.574541 0.0294309 
-0.427754 43.5785 8.22308 -7.29599 13.612 -6.69726 8.88178e-016 5.99393 0.287273 5.58614 7.44657 -4.1745 -4.44089e-016 6.65865 -0.856112 11.8519 14.4242 -9.17717 0 8.65624 -1.42685 -4.56907 -9.53442 -29.5407 -1.77636e-015 3.80999 -0.190247 1.74055 -3.72071 -23.8182 -1.4963 7.5744 -1.52136 -13.5908 -0.00102037 -3.48887 -5.47506 -0.905672 0.485692 88.4287 2.93333 -10.2481 -11.3069 -0.201091 0.618544 -3.80282 22.2899 -0.112205 -9.61414 -0.254739 3.48553 -5.13742 23.1613 12.6587 0.176263 -0.07068 1.26622 -2.10279 7.06556 -16.123 -1.04683 -0.546484 1.82182 1.48277 -1.44801 4.28413 -0.993472 -0.621916 0.655506 -0.879976 0.97055 -2.68778 -2.64253 0.566363 2.4162 8.42287 7.3418 -7.54047 -1.39394 -0.635138 0.899356 -1.75057 -0.470626 0.25083 -0.622395 -0.856016 0.402182 4.27159 1.11196 -0.669703 -3.20814 0.514427 1.52547 2.3866 3.97426 -0.645204 -1.56545 -0.497974 0.68919 2.73402 0.829456 -0.408466 -0.679943 -1.17582 0.444246 1.94906 0.593485 -0.287232 -3.47877 0.200518 0.597719 1.14985 -0.219154 0.069569 -1.28208 -0.53155 0.44672 2.40773 0.822649 -0.456631 -0.710288 -0.970167 0.4032 1.61747 0.555198 -0.302797 -3.42483 -0.278904 -0.240415 1.86632 -0.986744 1.02088 -1.05787 -0.635999 0.156459 0.150767 0.056466 -0.025419 -0.42815 -0.754232 0.287187 1.84193 0.681475 -0.320366 1.4963 7.5744 -1.52136 19.3897 -0.0688853 -0.615476 5.47506 -0.905672 0.485692 -95.2898 11.6572 10.7651 11.3069 -0.201091 0.618544 -1.18311 12.3902 -6.36834 9.61414 -0.254739 3.48553 -11.9602 11.1 16.7181 -0.176263 -0.07068 1.26622 4.63218 3.82515 13.4504 1.04683 -0.546484 1.82182 -3.8092 -0.892361 -6.71956 0.993472 -0.621916 0.655506 -0.00889963 -0.00258087 -0.0157686 2.64253 0.566363 2.4162 -1.17706 5.76207 7.27886 1.39394 -0.635138 0.899356 6.50537 -2.33948 -2.49083 0.622395 -0.856016 0.402182 0.972409 -0.32932 -0.386532 3.20814 0.514427 1.52547 3.06939 2.14929 -0.60326 1.56545 -0.497974 0.68919 2.38944 -0.931937 -0.945488 0.679943 -1.17582 0.444246 3.10946 -1.22311 -1.22533 3.47877 0.200518 0.597719 3.58447 -2.20633 -1.96752 1.28208 -0.53155 0.44672 2.57395 -1.11133 -1.1553 0.710288 -0.970167 0.4032 3.2899 -1.43547 -1.47103 3.42483 -0.278904 -0.240415 2.57783 -2.97414 -2.75637 1.05787 -0.635999 0.156459 4.56792 -2.16827 -1.97167 0.42815 -0.754232 0.287187 3.05743 -1.43023 -1.33512 -4.17848 -1.02486 0.046356 12.601 -17.2564 6.14412 1.27155 -17.465 -0.237699 0.469423 4.29636 0.596533 0.529163 -17.3815 -1.19582 -1.9956 0.219681 -8.95559 -0.711591 -4.4863 4.0596 0.142126 1.02393 -0.0289581 4.17848 -1.02486 0.046356 8.37899 -0.259371 -10.4285 -1.27155 -17.465 -0.237699 0.206223 2.9461 0.398653 -0.529163 -17.3815 -1.19582 5.61668 -15.395 -3.7715 0.711591 -4.4863 4.0596 0.0681804 -0.571962 0.0293114 
-0.432382 43.5781 8.22567 -7.3039 13.6206 -6.68605 0 5.99393 0.287273 5.59967 7.45596 -4.17985 0 6.65865 -0.856112 11.881 14.4412 -9.19095 8.88178e-016 8.65624 -1.42685 -4.4568 -9.6114 -29.6841 1.77636e-015 3.80999 -0.190247 1.7887 -3.71548 -23.9608 -1.4963 7.5744 -1.52136 -13.5913 -0.000708976 -3.49525 -5.47506 -0.905672 0.485692 88.4289 2.93344 -10.247 -11.3069 -0.201091 0.618544 -3.81229 22.2854 -0.112049 -9.61414 -0.254739 3.48553 -5.14288 23.1571 12.6526 0.176263 -0.07068 1.26622 -2.103 7.06549 -16.1229 -1.04683 -0.546484 1.82182 1.48277 -1.44801 4.28413 -0.993472 -0.621916 0.655506 -0.879981 0.97056 -2.68777 -2.64253 0.566363 2.4162 8.42275 7.34178 -7.54045 -1.39394 -0.635138 0.899356 -1.75077 -0.47068 0.250869 -0.622395 -0.856016 0.402182 4.27157 1.11203 -0.669678 -3.20814 0.514427 1.52547 2.39313 3.97617 -0.646573 -1.56545 -0.497974 0.68919 2.74076 0.831474 -0.409515 -0.679943 -1.17582 0.444246 1.95604 0.595595 -0.288295 -3.47877 0.200518 0.597719 1.15615 -0.21673 0.0684538 -1.28208 -0.53155 0.44672 2.41374 0.824688 -0.457816 -0.710288 -0.970167 0.4032 1.6236 0.557289 -0.303977 -3.42483 -0.278904 -0.240415 1.87271 -0.984172 1.01993 -1.05787 -0.635999 0.156459 0.157471 0.0589709 -0.0265496 -0.42815 -0.754232 0.287187 1.84348 0.682443 -0.320795 1.4963 7.5744 -1.52136 19.3865 -0.0690018 -0.618129 5.47506 -0.905672 0.485692 -95.2841 11.6518 10.7802 11.3069 -0.201091 0.618544 -1.1812 12.4017 -6.37363 9.61414 -0.254739 3.48553 -11.9671 10.9803 16.7485 -0.176263 -0.07068 1.26622 4.63238 3.82513 13.4502 1.04683 -0.546484 1.82182 -3.80914 -0.892277 -6.71962 0.993472 -0.621916 0.655506 -0.0089142 -0.00257678 -0.0157754 2.64253 0.566363 2.4162 -1.18005 5.76264 7.28032 1.39394 -0.635138 0.899356 6.50282 -2.33849 -2.48991 0.622395 -0.856016 0.402182 0.969699 -0.328391 -0.38543 3.20814 0.514427 1.52547 3.06317 2.1517 -0.600514 1.56545 -0.497974 0.68919 2.38313 -0.929394 -0.943039 0.679943 -1.17582 0.444246 3.10319 -1.2209 -1.22311 3.47877 0.200518 0.597719 3.57862 -2.20341 -1.965 1.28208 -0.53155 0.44672 2.56803 -1.10871 -1.1527 0.710288 -0.970167 0.4032 3.28462 -1.43397 -1.46901 3.42483 -0.278904 -0.240415 2.5711 -2.97064 -2.75362 1.05787 -0.635999 0.156459 4.56194 -2.1653 -1.96919 0.42815 -0.754232 0.287187 3.0517 -1.42746 -1.33266 -4.17848 -1.02486 0.046356 12.6146 -17.2572 6.14903 1.27155 -17.465 -0.237699 0.469032 4.29633 0.592007 0.529163 -17.3815 -1.19582 -2.00425 0.207558 -8.95642 -0.711591 -4.4863 4.0596 0.144728 1.04337 -0.0295007 4.17848 -1.02486 0.046356 8.39609 -0.268978 -10.402 -1.27155 -17.465 -0.237699 0.205718 2.95919 0.394914 -0.529163 -17.3815 -1.19582 5.60244 -15.411 -3.79807 0.711591 -4.4863 4.0596 0.0678824 -0.569365 0.0291902 
-0.437307 43.5774 8.22684 -7.30564 13.6276 -6.67595 0 5.99393 0.287273 5.60675 7.45503 -4.17964 -4.44089e-016 6.65865 -0.856112 11.8951 14.4387 -9.19126 0 8.65624 -1.42685 -4.34864 -9.6785 -29.8287 1.77636e-015 3.80999 -0.190247 1.85713 -3.71406 -24.1084 -1.4963 7.5744 -1.52136 -13.5918 -0.000375078 -3.50167 -5.47506 -0.905672 0.485692 88.4292 2.93355 -10.246 -11.3069 -0.201091 0.618544 -3.81916 22.2833 -0.113326 -9.61414 -0.254739 3.48553 -5.15093 23.1535 12.6504 0.176263 -0.07068 1.26622 -2.10318 7.06543 -16.1228 -1.04683 -0.546484 1.82182 1.48276 -1.44802 4.28413 -0.993472 -0.621916 0.655506 -0.879984 0.970594 -2.68776 -2.64253 0.566363 2.4162 8.42263 7.34176 -7.54039 -1.39394 -0.635138 0.899356 -1.751 -0.470755 0.250886 -0.622395 -0.856016 0.402182 4.27173 1.112 -0.669723 -3.20814 0.514427 1.52547 2.39963 3.97809 -0.647956 -1.56545 -0.497974 0.68919 2.7475 0.833504 -0.410576 -0.679943 -1.17582 0.444246 1.96299 0.597685 -0.289344 -3.47877 0.200518 0.597719 1.16241 -0.214311 0.0673388 -1.28208 -0.53155 0.44672 2.41979 0.826726 -0.459008 -0.710288 -0.970167 0.4032 1.62976 0.559371 -0.305156 -3.42483 -0.278904 -0.240415 1.87908 -0.981628 1.01899 -1.05787 -0.635999 0.156459 0.164164 0.0614792 -0.0276917 -0.42815 -0.754232 0.287187 1.84503 0.68341 -0.32122 1.4963 7.5744 -1.52136 19.3825 -0.0691981 -0.621459 5.47506 -0.905672 0.485692 -95.2779 11.6467 10.7904 11.3069 -0.201091 0.618544 -1.1799 12.4094 -6.3769 9.61414 -0.254739 3.48553 -11.9722 10.8994 16.7674 -0.176263 -0.07068 1.26622 4.63253 3.82514 13.4501 1.04683 -0.546484 1.82182 -3.80915 -0.89227 -6.71962 0.993472 -0.621916 0.655506 -0.00890459 -0.00256592 -0.0157585 2.64253 0.566363 2.4162 -1.18308 5.76325 7.28178 1.39394 -0.635138 0.899356 6.50027 -2.33753 -2.48899 0.622395 -0.856016 0.402182 0.966954 -0.327463 -0.384381 3.20814 0.514427 1.52547 3.05693 2.15418 -0.597769 1.56545 -0.497974 0.68919 2.37676 -0.926821 -0.940566 0.679943 -1.17582 0.444246 3.09696 -1.21869 -1.22087 3.47877 0.200518 0.597719 3.57275 -2.20046 -1.96248 1.28208 -0.53155 0.44672 2.56209 -1.10608 -1.15008 0.710288 -0.970167 0.4032 3.27932 -1.43246 -1.46697 3.42483 -0.278904 -0.240415 2.56438 -2.96708 -2.75088 1.05787 -0.635999 0.156459 4.55597 -2.16235 -1.96671 0.42815 -0.754232 0.287187 3.04592 -1.42467 -1.33022 -4.17848 -1.02486 0.046356 12.6232 -17.2641 6.15301 1.27155 -17.465 -0.237699 0.46856 4.30383 0.587713 0.529163 -17.3815 -1.19582 -2.01299 0.191577 -8.95745 -0.711591 -4.4863 4.0596 0.147332 1.06279 -0.0300468 4.17848 -1.02486 0.046356 8.40936 -0.262144 -10.3759 -1.27155 -17.465 -0.237699 0.205051 2.95144 0.392192 -0.529163 -17.3815 -1.19582 5.58819 -15.4235 -3.8249 0.711591 -4.4863 4.0596 0.0675726 -0.566779 0.0290558 
